<?xml version="1.0" standalone="no"?>
<!DOCTYPE svg PUBLIC "-//W3C//DTD SVG 20010904//EN"
 "http://www.w3.org/TR/2001/REC-SVG-20010904/DTD/svg10.dtd">
<svg version="1.0" xmlns="http://www.w3.org/2000/svg"
 width="360.000000pt" height="360.000000pt" viewBox="0 0 360.000000 360.000000"
 preserveAspectRatio="xMidYMid meet">
<metadata>
Created by potrace 1.11, written by Peter Selinger 2001-2013
</metadata>
<g transform="translate(0.000000,360.000000) scale(0.100000,-0.100000)"
fill="#000000" stroke="none">
<path d="M1615 3573 c4 -15 9 -39 11 -52 3 -13 9 -32 15 -43 5 -10 7 -18 4
-18 -2 0 1 -17 9 -37 8 -21 18 -51 22 -68 11 -44 11 -45 28 -100 9 -27 16 -57
16 -65 0 -10 -43 -38 -112 -74 -145 -75 -350 -182 -506 -263 -67 -35 -247
-145 -400 -245 -152 -99 -303 -197 -336 -217 -32 -20 -69 -44 -83 -55 l-24
-18 6 -177 c3 -97 8 -234 11 -306 2 -71 6 -191 9 -265 11 -372 17 -516 23
-527 4 -6 36 -33 72 -60 104 -78 908 -684 1105 -833 99 -75 186 -140 193 -144
7 -4 31 5 58 23 25 17 47 31 50 31 3 0 17 8 32 19 15 10 86 54 157 98 127 78
358 221 413 255 15 10 38 24 52 32 26 15 567 348 698 430 59 37 72 50 67 65
-6 21 -12 47 -20 96 -3 17 -17 85 -31 151 -14 67 -27 132 -29 145 -6 33 -12
61 -30 149 -8 41 -17 84 -19 95 -2 11 -13 65 -25 120 -11 55 -22 111 -25 125
-4 23 -52 258 -62 305 -2 11 -7 34 -10 50 -3 17 -11 57 -19 90 -7 33 -16 76
-19 95 -3 19 -8 46 -11 60 -4 14 -8 39 -11 55 -3 17 -7 36 -9 43 -3 7 8 24 23
38 15 14 54 51 87 82 247 232 318 297 326 300 31 12 -15 35 -199 100 -114 40
-216 77 -227 81 -25 11 -208 76 -215 76 -3 0 -9 3 -15 7 -5 3 -26 10 -45 16
-19 5 -73 24 -120 41 -47 18 -112 41 -145 52 -33 11 -69 24 -80 29 -19 8 -129
48 -150 54 -5 2 -17 6 -25 9 -8 3 -55 20 -105 37 -95 33 -220 78 -245 87 -8 3
-19 7 -25 8 -5 2 -34 13 -64 24 l-53 22 7 -28z"/>
</g>
</svg>
